<?xml version="1.0" encoding="UTF-8" standalone="no"?>
<svg xmlns="http://www.w3.org/2000/svg" width="100" height="100" viewBox="0 0 100 100">
  <circle cx="50" cy="50" r="45" fill="#DAA520"/>
  <!-- Étoiles au-dessus -->
  <path d="M30 25 L33 30 L40 30 L35 35 L37 42 L30 38 L23 42 L25 35 L20 30 L27 30 Z" fill="white"/>
  <path d="M50 25 L53 30 L60 30 L55 35 L57 42 L50 38 L43 42 L45 35 L40 30 L47 30 Z" fill="white"/>
  <path d="M70 25 L73 30 L80 30 L75 35 L77 42 L70 38 L63 42 L65 35 L60 30 L67 30 Z" fill="white"/>
  <!-- MVP text -->
  <text x="50" y="70" font-family="Arial Black" font-size="35" text-anchor="middle" fill="white">MVP</text>
</svg>
