<?xml version="1.0" encoding="UTF-8"?>
<svg width="100" height="100" version="1.1" viewBox="0 0 100 100" xmlns="http://www.w3.org/2000/svg">
  <circle cx="50" cy="50" r="45" fill="#4B0082"/>
  <!-- Bouclier stylisé -->
  <path d="M50,15 L75,25 L75,45 C75,65 65,75 50,85 C35,75 25,65 25,45 L25,25 Z" 
        fill="none" stroke="#FFD700" stroke-width="3"/>
  <!-- Texte -->
  <text x="50" y="45" text-anchor="middle" font-family="Arial Black" font-size="14" fill="#FFFFFF">SURVIVOR</text>
  <text x="50" y="60" text-anchor="middle" font-family="Arial Black" font-size="12" fill="#FFD700">CHAMPION</text>
  <!-- Étoiles -->
  <path d="M35,35 l3,-1 l1,-3 l1,3 l3,1 l-2,2 l1,3 l-3,-2 l-3,2 l1,-3 z" fill="#FFD700"/>
  <path d="M65,35 l3,-1 l1,-3 l1,3 l3,1 l-2,2 l1,3 l-3,-2 l-3,2 l1,-3 z" fill="#FFD700"/>
</svg>
