<?xml version="1.0" encoding="UTF-8" standalone="no"?>
<svg xmlns="http://www.w3.org/2000/svg" width="100" height="100" viewBox="0 0 100 100">
  <circle cx="50" cy="50" r="45" fill="#8B0000"/>
  <!-- 4 étoiles -->
  <path d="M20 25 L23 30 L28 30 L24 33 L26 38 L20 35 L14 38 L16 33 L12 30 L17 30 Z" fill="white"/>
  <path d="M40 25 L43 30 L48 30 L44 33 L46 38 L40 35 L34 38 L36 33 L32 30 L37 30 Z" fill="white"/>
  <path d="M60 25 L63 30 L68 30 L64 33 L66 38 L60 35 L54 38 L56 33 L52 30 L57 30 Z" fill="white"/>
  <path d="M80 25 L83 30 L88 30 L84 33 L86 38 L80 35 L74 38 L76 33 L72 30 L77 30 Z" fill="white"/>
  <!-- WM -->
  <text x="50" y="65" font-family="Arial Black" font-size="35" text-anchor="middle" fill="white">WM</text>
</svg>
