<?xml version="1.0" encoding="UTF-8" standalone="no"?>
<svg xmlns="http://www.w3.org/2000/svg" width="100" height="100" viewBox="0 0 100 100">
  <circle cx="50" cy="50" r="45" fill="#FF0000"/>
  <!-- Flammes -->
  <path d="M50 20 C60 40 70 50 50 80 C30 50 40 40 50 20" fill="white"/>
  <path d="M35 30 C45 50 55 60 35 85 C15 60 25 50 35 30" fill="white"/>
  <path d="M65 30 C75 50 85 60 65 85 C45 60 55 50 65 30" fill="white"/>
  <path d="M50 25 C55 35 60 40 50 55 C40 40 45 35 50 25" fill="#FF4500"/>
</svg>
