<?xml version="1.0" encoding="UTF-8" standalone="no"?>
<svg xmlns="http://www.w3.org/2000/svg" width="100" height="100" viewBox="0 0 100 100">
  <circle cx="50" cy="50" r="45" fill="#4B0082"/>
  <!-- Couronne remplie en blanc -->
  <path d="M25 40 L35 20 L45 35 L50 15 L55 35 L65 20 L75 40 L70 45 L30 45 Z" fill="white"/>
  <!-- Étoiles -->
  <path d="M35 36 L37 39 L40 39 L38 41 L39 44 L35 42 L31 44 L32 41 L30 39 L33 39 Z" fill="#4B0082"/>
  <path d="M50 31 L52 34 L55 34 L53 36 L54 39 L50 37 L46 39 L47 36 L45 34 L48 34 Z" fill="#4B0082"/>
  <path d="M65 36 L67 39 L70 39 L68 41 L69 44 L65 42 L61 44 L62 41 L60 39 L63 39 Z" fill="#4B0082"/>
  <!-- RUMBLE! -->
  <text x="50" y="65" font-family="Arial Black" font-size="16" text-anchor="middle" fill="white">RUMBLE!</text>
</svg>
